<?xml version="1.0" encoding="UTF-8" standalone="no"?>
<svg xmlns="http://www.w3.org/2000/svg" width="881.727" height="743.75" class="detail convertSvgInline replaced-svg">
  <path d="M0 0v743.75h881.727V0H0zm756.33 248.585V132.312h99.917v-4.01H756.33V24.057h101.06V375.7c-1.07-1.035-2.27-1.9-3.454-2.823h2.31v-4.01h-8.58c-5.903-3.094-12.512-5.01-19.64-5.01s-13.73 1.916-19.634 5.01h-16.324l-35.748-22.363v-93.908h99.92v-4.01h-99.91zm42.16 124.292h3.642c-.527.425-1.063.842-1.573 1.29l-2.07-1.29zm29.552 7.017c14.354 0 26.023 11.54 26.023 25.732 0 14.194-11.67 25.733-26.023 25.733-14.362 0-26.024-11.54-26.024-25.74s11.67-25.73 26.024-25.73zm-71.712-14.418l5.416 3.392h-5.417v-3.392zm-136.283-79.202c0-8.46 4.2-15.902 10.59-20.6v41.208c-6.39-4.7-10.59-12.15-10.59-20.608zm14.638-23.03c3.455-1.677 7.282-2.703 11.377-2.703 14.363 0 26.024 11.54 26.024 25.74s-11.66 25.73-26.024 25.73c-4.095 0-7.93-1.02-11.377-2.7v-46.06zm36.144-10.65h81.44v91.375l-67.12-41.99c2.01-4.85 3.16-10.15 3.16-15.7 0-13.87-6.94-26.08-17.49-33.69zM634.68 24.057h117.59v104.245H634.687V24.057zm117.59 108.255v116.273h-88.31c-5.456-2.542-11.474-4.082-17.897-4.082-3.965 0-7.736.723-11.377 1.74v-113.93h117.588zM513.042 24.056H630.63V128.3H513.044V24.057zm0 108.254H630.63v115.174c-.842.33-1.645.714-2.464 1.1H513.043V132.31zm0 120.282h108.26c-10.532 7.602-17.474 19.823-17.474 33.68 0 7.217 2.025 13.912 5.294 19.846l-88.702 62.75h-7.38V252.594zm1.71 120.283l-1.71 1.203v-1.203h1.71zm-28.212 0h22.457v4.082l-11.694 8.275c-2.765-4.803-6.39-8.973-10.76-12.357zm-95.14-32.69l28.732 28.683H391.4v-28.684zm69.247 39.71c14.354 0 26.023 11.54 26.023 25.73 0 14.195-11.67 25.734-26.023 25.734-14.354 0-26.024-11.54-26.024-25.74s11.67-25.73 26.024-25.73zM391.4 24.055h117.587V128.3h-117.59V24.06zm0 108.255h117.587v116.274h-117.59V132.312zm117.587 120.282v116.276h-28.715c-5.896-3.095-12.505-5.012-19.625-5.012-6.61 0-12.79 1.644-18.36 4.322l-50.88-50.79v-64.796h117.58zm-121.643 60.75l-60.855-60.75h60.85v60.75zM269.754 24.055h117.59V128.3h-117.59V24.055zm117.592 108.257v116.273H322.47l-11.743-11.724c2.7-5.5 4.338-11.58 4.338-18.09 0-23.03-18.952-41.77-42.243-41.77-1.045 0-2.034.24-3.064.31v-44.99h117.59zm-140.54 86.467c0-11.74 8.03-21.56 18.905-24.63v49.26c-10.87-3.1-18.9-12.91-18.9-24.64zm22.95-25.44c1.015-.12 2.02-.31 3.066-.31 14.355 0 26.025 11.54 26.025 25.73s-11.67 25.73-26.024 25.73c-1.045 0-2.05-.188-3.064-.308v-50.85zM148.114 24.06H265.7v104.245H148.113V24.058zm0 108.254H265.7v45.402c-19.89 3.368-35.12 20.44-35.12 41.057 0 6.88 1.856 13.28 4.84 19.006l-7.55 10.81h-79.765l.008-116.28zm76.966 120.28l-76.96 110.15v-110.15h76.96zm-81.022-228.54V128.3H25.464v4.01h118.594v116.273H25.464v4.01h118.594v115.953l-.227.32H25.47v4.01h115.57l-18.13 25.934c-7.348-6.135-16.714-9.96-27.046-9.96-23.29 0-42.243 18.74-42.243 41.77 0 11.435 4.69 21.803 12.25 29.35l-28.74 29.18H25.47v4.01h7.712l-8.848 8.98V24.057H144.06zM69.838 430.62c0-14.195 11.67-25.734 26.025-25.734 14.354 0 26.024 11.54 26.024 25.732 0 14.193-11.67 25.732-26.024 25.732-14.354 0-26.024-11.54-26.024-25.733zm74.22 178.81H25.464v4.01h118.594v106.25H24.328V525.116l31.482-31.948h88.248v116.266zm-84.3-120.282l19.732-20.032c5.036 2.117 10.567 3.27 16.373 3.27 23.29 0 42.243-18.74 42.243-41.77 0-6.75-1.776-13.03-4.664-18.667l10.616-15.2v92.38l-84.3.01zM265.7 719.688H148.115V613.442H265.7v106.25zm0-110.258H148.115V493.16H265.7v116.274zm0-120.283H148.115V390.96l12.634-18.084H265.7v116.276zm-102.146-120.28l81.242-116.274h3.446c5.102 3.633 11.022 6.143 17.46 7.233v109.04H163.555zm223.79 350.825h-117.59v-106.25h117.59v106.25zm0-110.258h-117.59V493.16h117.59v116.274zm0-120.283h-117.59V372.88h117.59v116.276zm-117.59-120.28V260.24c1.03.07 2.02.304 3.067.304 9.2 0 17.65-3 24.59-7.947h6.25l83.69 83.54v32.734H269.76zM508.99 719.7H391.4V613.45h117.59V719.7zm0-110.258H391.4V493.16h117.59v116.274zM391.398 489.15V372.876h32.756l5.093 5.084c-6.666 7.385-10.843 17.015-10.843 27.664 0 23.03 18.952 41.77 42.243 41.77 23.29 0 42.242-18.74 42.242-41.77 0-1.49-.3-2.878-.44-4.314l6.54-4.627v92.466H391.4zM630.63 719.69H513.05V613.44h117.58v106.25zm0-110.258H513.05V493.16h117.58v116.274zm0-120.283H513.05v-95.34l29.583-20.92h88.005v116.27zm-82.32-120.28l71.21-50.36c3.35 2.7 7.03 4.96 11.11 6.56v43.8h-82.32zM752.28 719.7H634.69V613.45h117.59V719.7zm0-110.258H634.69V493.16h117.59v116.274zm0-120.284H634.69v-116.28h117.59v116.277zM634.688 368.87v-42.564c3.64 1.018 7.41 1.74 11.376 1.74 11.84 0 22.513-4.868 30.2-12.662l76.01 47.56v5.926H634.687zM756.33 719.69V613.44h99.917v-4.008H756.33V493.16h99.917v-4.01H756.33V372.878h11.83l22.35 13.977c-2.91 5.67-4.72 11.988-4.72 18.772 0 23.03 18.96 41.77 42.244 41.77 11.41 0 21.75-4.538 29.356-11.843v284.14H756.33z" fill="#007f3f" stroke="null"/>
</svg>
