<?xml version="1.0" encoding="UTF-8" standalone="no"?>
<svg
   xmlns:dc="http://purl.org/dc/elements/1.1/"
   xmlns:cc="http://creativecommons.org/ns#"
   xmlns:rdf="http://www.w3.org/1999/02/22-rdf-syntax-ns#"
   xmlns:svg="http://www.w3.org/2000/svg"
   xmlns="http://www.w3.org/2000/svg"
   xmlns:sodipodi="http://sodipodi.sourceforge.net/DTD/sodipodi-0.dtd"
   xmlns:inkscape="http://www.inkscape.org/namespaces/inkscape"
   width="881.72699"
   height="743.74994"
   class="detail convertSvgInline replaced-svg"
   id="svg3388"
   version="1.1"
   inkscape:version="0.91 r13725"
   sodipodi:docname="analytics.svg">
  <metadata
     id="metadata3400">
    <rdf:RDF>
      <cc:Work
         rdf:about="">
        <dc:format>image/svg+xml</dc:format>
        <dc:type
           rdf:resource="http://purl.org/dc/dcmitype/StillImage" />
        <dc:title></dc:title>
      </cc:Work>
    </rdf:RDF>
  </metadata>
  <defs
     id="defs3398" />
  <sodipodi:namedview
     pagecolor="#ffffff"
     bordercolor="#666666"
     borderopacity="1"
     objecttolerance="10"
     gridtolerance="10"
     guidetolerance="10"
     inkscape:pageopacity="0"
     inkscape:pageshadow="2"
     inkscape:window-width="1680"
     inkscape:window-height="1026"
     id="namedview3396"
     showgrid="false"
     fit-margin-top="0"
     fit-margin-left="0"
     fit-margin-right="0"
     fit-margin-bottom="0"
     inkscape:zoom="7.9373111"
     inkscape:cx="505.3635"
     inkscape:cy="365.37445"
     inkscape:window-x="0"
     inkscape:window-y="24"
     inkscape:window-maximized="1"
     inkscape:current-layer="svg3388" />
  <g
     id="g3390"
     transform="translate(451,324.01199)">
    <title
       id="title3392">Layer 1</title>
    <g
       stroke="null"
       id="svg_1">
      <path
         stroke="null"
         id="svg_2"
         d="m -451,-324.01199 0,743.74994 881.72702,0 0,-743.74994 -881.72702,0 z m 756.32919,248.58486 0,-116.2736 99.91776,0 0,-4.00948 -99.91776,0 0,-104.24515 101.06113,0 0,351.64329 c -1.07047,-1.03443 -2.27066,-1.90047 -3.45462,-2.82264 l 2.31125,0 0,-4.00944 -8.58002,0 c -5.90372,-3.09521 -12.51291,-5.01179 -19.64114,-5.01179 -7.12823,0 -13.72958,1.91657 -19.63342,5.01179 l -16.32455,0 -35.7468,-22.36458 0,-93.90902 99.91776,0 0,-4.0094 -99.90958,0 z m 42.1615,124.29243 3.6412,0 c -0.52716,0.42503 -1.06247,0.84203 -1.57324,1.29107 l -2.06796,-1.29107 z m 29.55127,7.01653 c 14.35379,0 26.02353,11.53917 26.02353,25.73254 0,14.19337 -11.66974,25.73254 -26.02353,25.73254 -14.36209,0 -26.02365,-11.53917 -26.02365,-25.73254 0,-14.19337 11.66959,-25.73254 26.02365,-25.73254 z m -71.71277,-14.41789 5.41721,3.39193 -5.41721,0 0,-3.39193 z M 169.04815,-37.73842 c 0,-8.45997 4.20062,-15.90144 10.59106,-20.6005 l 0,41.209 c -6.39044,-4.6991 -10.59106,-12.14865 -10.59106,-20.60849 z m 14.63779,-23.03023 c 3.45465,-1.67599 7.28232,-2.7023 11.37753,-2.7023 14.36212,0 26.02374,11.53908 26.02374,25.73254 0,14.19337 -11.66162,25.73254 -26.02374,25.73254 -4.09521,0 -7.93106,-1.02648 -11.37753,-2.70239 l 0,-46.06038 z m 36.14429,-10.64907 81.44418,0 0,91.37506 -67.12283,-41.98678 c 2.01117,-4.85147 3.16275,-10.14395 3.16275,-15.70102 0,-13.86459 -6.9418,-26.07731 -17.4841,-33.68726 z m -36.14429,-228.53762 117.58847,0 0,104.24515 -117.58847,0 0,-104.24515 z m 117.58847,108.25462 0,116.2736 -88.31311,0 c -5.45764,-2.54195 -11.47501,-4.08159 -17.89783,-4.08159 -3.96536,0 -7.73645,0.72166 -11.37753,1.74007 l 0,-113.93208 117.58847,0 z m -239.23175,-108.25462 117.58844,0 0,104.24515 -117.58844,0 0,-104.24515 z m 0,108.25462 117.58844,0 0,115.17496 c -0.84338,0.3288 -1.64624,0.71367 -2.46536,1.09863 l -115.12308,0 0,-116.2736 z m 0,120.283 108.26239,0 c -10.53421,7.60196 -17.47601,19.82267 -17.47601,33.67931 0,7.217 2.0274,13.91273 5.29553,19.8466 l -88.70221,62.74769 -7.3797,0 0,-116.27359 z m 1.71106,120.28303 -1.71106,1.20286 0,-1.20286 1.71106,0 z m -28.21313,0 22.45532,0 0,4.08163 -11.69397,8.27544 C 43.53656,56.41909 39.91168,52.24933 35.54059,48.86531 Z m -95.14117,-32.69294 28.73212,28.6835 -28.73212,0 0,-28.6835 z M 9.64686,55.88184 c 14.35388,0 26.02344,11.53917 26.02344,25.73254 0,14.19337 -11.66956,25.73254 -26.02344,25.73254 -14.35388,0 -26.02368,-11.53917 -26.02368,-25.73254 0,-14.19337 11.6698,-25.73254 26.02368,-25.73254 z m -69.24744,-355.83718 117.5885,0 0,104.24515 -117.5885,0 0,-104.24515 z m 0,108.25462 117.5885,0 0,116.2736 -117.5885,0 0,-116.2736 z m 117.5885,120.283 0,116.27359 -28.716,0 C 23.37629,41.76066 16.76698,39.84408 9.64686,39.84408 c -6.60944,0 -12.78882,1.64387 -18.36005,4.32217 l -50.87939,-50.79148 0,-64.7925 117.58051,0 z m -121.64331,60.75093 -60.85419,-60.75093 60.85419,0 0,60.75093 z m -117.5885,-289.28856 117.5885,0 0,104.24515 -117.5885,0 0,-104.24515 z m 117.5885,108.25462 0,116.2736 -64.87634,0 -11.74261,-11.72357 c 2.70038,-5.50098 4.33844,-11.57928 4.33844,-18.09055 0,-23.03027 -18.95203,-41.77034 -42.24261,-41.77034 -1.04608,0 -2.03552,0.23256 -3.06537,0.30475 l 0,-44.99388 117.5885,0 z m -140.5387,86.46741 c 0,-11.73156 8.02875,-21.55466 18.90363,-24.62588 l 0,49.25983 c -10.87488,-3.09522 -18.90363,-12.91034 -18.90363,-24.63396 z m 22.9502,-25.43583 c 1.01373,-0.12029 2.01929,-0.30473 3.06537,-0.30473 14.35382,0 26.02362,11.5392 26.02362,25.73262 0,14.19337 -11.6698,25.73254 -26.02362,25.73254 -1.04608,0 -2.05164,-0.18445 -3.06537,-0.30474 l 0,-50.85568 z m -121.64325,-169.28621 117.5885,0 0,104.24515 -117.5885,0 0,-104.24515 z m 0,108.25462 117.5885,0 0,45.40285 c -19.8927,3.36792 -35.12238,20.4401 -35.12238,41.05663 0,6.88013 1.85681,13.27915 4.84125,19.00469 l -7.54993,10.80943 -79.76556,0 0.008,-116.2736 0,0 z m 76.96771,120.283 -76.95947,110.1472 0,-110.1472 76.95947,0 z m -81.02252,-228.53762 0,104.24515 -118.59393,0 0,4.00948 118.59393,0 0,116.2736 -118.59393,0 0,4.0094 118.59393,0 0,115.95284 -0.22711,0.32076 -118.36682,0 0,4.00944 115.56897,0 -18.12476,25.93306 c -7.34723,-6.13443 -16.71375,-9.9595 -27.04517,-9.9595 -23.29077,0 -42.24286,18.74014 -42.24286,41.77029 0,11.43498 4.68732,21.80333 12.24561,29.34908 l -28.74036,29.18068 -11.66144,0 0,4.00943 7.71216,0 -8.8476,8.98116 0,-478.08484 119.72937,0 z m -74.21863,406.5645 c 0,-14.19337 11.66962,-25.73254 26.02374,-25.73254 14.35412,0 26.02344,11.53916 26.02344,25.73254 0,14.19338 -11.66968,25.73262 -26.02344,25.73262 -14.35376,0 -26.02374,-11.5392 -26.02374,-25.73262 z m 74.21863,178.81276 -118.59393,0 0,4.00943 118.59393,0 0,106.25003 -119.72937,0 0,-194.57785 31.48114,-31.94719 88.24823,0 0,116.26558 z m -84.29889,-120.283 19.73065,-20.03114 c 5.03607,2.11696 10.56683,3.27173 16.37335,3.27173 23.29041,0 42.24249,-18.74014 42.24249,-41.77034 0,-6.75185 -1.77594,-13.03066 -4.66315,-18.66787 l 10.61554,-15.19576 0,92.38535 -84.29889,0.008 0,0 z m 205.9422,230.54247 -117.5885,0 0,-106.25003 117.5885,0 0,106.25003 z m 0,-110.25946 -117.5885,0 0,-116.27357 117.5885,0 0,116.27357 z m 0,-120.283 -117.5885,0 0,-98.19108 12.63458,-18.08252 104.95392,0 0,116.2736 z m -102.14789,-120.28304 81.24146,-116.27359 3.44647,0 c 5.10083,3.63259 11.02094,6.14254 17.45996,7.23306 l 0,109.04054 -102.14789,0 z m 223.79114,350.8255 -117.5885,0 0,-106.25003 117.5885,0 0,106.25003 z m 0,-110.25946 -117.5885,0 0,-116.27357 117.5885,0 0,116.27357 z m 0,-120.283 -117.5885,0 0,-116.2736 117.5885,0 0,116.2736 z m -117.5885,-120.28304 0,-108.63157 c 1.02985,0.07211 2.01929,0.30474 3.06537,0.30474 9.19623,0 17.64636,-2.99915 24.58813,-7.94677 l 6.24438,0 83.69061,83.54059 0,32.73301 -117.5885,0 z m 239.23181,350.8255 -117.5885,0 0,-106.25003 117.5885,0 0,106.25003 z m 0,-110.25946 -117.5885,0 0,-116.27357 117.5885,0 0,116.27357 z m -117.5885,-120.283 0,-116.2736 32.75452,0 5.09271,5.08398 c -6.66602,7.38538 -10.84253,17.01605 -10.84253,27.66508 0,23.0302 18.95209,41.77026 42.24274,41.77026 23.29065,0 42.24249,-18.74007 42.24249,-41.77026 0,-1.49149 -0.29187,-2.87872 -0.43787,-4.31418 l 6.54443,-4.62686 0,92.46558 -117.5965,0 z m 239.23169,230.54247 -117.58844,0 0,-106.25003 117.58844,0 0,106.25003 z m 0,-110.25946 -117.58844,0 0,-116.27357 117.58844,0 0,116.27357 z m 0,-120.283 -117.58844,0 0,-95.34435 29.58359,-20.92123 88.00485,0 0,116.26557 z M 97.31098,44.85588 168.51285,-5.51061 c 3.34927,2.70235 7.03107,4.96369 11.11017,6.55946 l 0,43.80703 -82.31204,0 z m 203.96344,350.8255 -117.58847,0 0,-106.25003 117.58847,0 0,106.25003 z m 0,-110.25946 -117.58847,0 0,-116.27357 117.58847,0 0,116.27357 z m 0,-120.283 -117.58847,0 0,-116.2736 117.58847,0 0,116.2736 z M 183.68595,44.85588 l 0,-42.56414 c 3.64108,1.01841 7.41217,1.74011 11.37753,1.74011 11.84003,0 22.51224,-4.86745 30.19998,-12.66181 l 76.01096,47.55991 0,5.92593 -117.58847,0 z m 121.64325,350.8255 0,-106.25003 99.91776,0 0,-4.00943 -99.91776,0 0,-116.27357 99.91776,0 0,-4.00943 -99.91776,0 0,-116.2736 11.8317,0 22.35004,13.97692 c -2.91129,5.66929 -4.71976,11.98817 -4.71976,18.77214 0,23.0302 18.96011,41.77026 42.24261,41.77026 11.41013,0 21.74976,-4.53862 29.35654,-11.84383 l 0,284.14057 -101.06113,0 z"
         inkscape:connector-curvature="0"
         style="fill:#007f3f" />
    </g>
  </g>
</svg>
